REM DIRINDEX 1\2,1\3,1\4,1\6,1\5\7,1\5\8
REM DIRNAME cjc114,folder01,folder02,folder03,folder04,folder05,folder06,folder07
TITLE ""
FILE "DB4500_5th_5C_11.mp3" MP3
  TRACK 01 AUDIO
    TITLE "0:"
    INDEX 01 00:00:00
  TRACK 02 AUDIO
    TITLE "2:cjc114_3579"
    INDEX 01 00:00:05
  TRACK 03 AUDIO
    TITLE "0:"
    INDEX 01 00:01:17
  TRACK 04 AUDIO
    TITLE "3:cjc114_3580"
    INDEX 01 00:01:32
  TRACK 05 AUDIO
    TITLE "0:"
    INDEX 01 00:02:53
  TRACK 06 AUDIO
    TITLE "4:cjc114_3581"
    INDEX 01 00:02:67
  TRACK 07 AUDIO
    TITLE "0:"
    INDEX 01 00:05:50
  TRACK 08 AUDIO
    TITLE "2:cjc114_3582"
    INDEX 01 00:06:10
  TRACK 09 AUDIO
    TITLE "0:"
    INDEX 01 00:07:29
  TRACK 10 AUDIO
    TITLE "3:cjc114_3583"
    INDEX 01 00:07:43
  TRACK 11 AUDIO
    TITLE "0:"
    INDEX 01 00:08:48
  TRACK 12 AUDIO
    TITLE "4:cjc114_3584"
    INDEX 01 00:08:62
  TRACK 13 AUDIO
    TITLE "0:"
    INDEX 01 00:12:52
  TRACK 14 AUDIO
    TITLE "2:cjc114_3585"
    INDEX 01 00:13:16
  TRACK 15 AUDIO
    TITLE "0:"
    INDEX 01 00:14:33
  TRACK 16 AUDIO
    TITLE "3:cjc114_3586"
    INDEX 01 00:14:45
  TRACK 17 AUDIO
    TITLE "0:"
    INDEX 01 00:15:70
  TRACK 18 AUDIO
    TITLE "4:cjc114_3587"
    INDEX 01 00:16:10
  TRACK 19 AUDIO
    TITLE "0:"
    INDEX 01 00:18:74
  TRACK 20 AUDIO
    TITLE "2:cjc114_3588"
    INDEX 01 00:19:36
  TRACK 21 AUDIO
    TITLE "0:"
    INDEX 01 00:20:49
  TRACK 22 AUDIO
    TITLE "3:cjc114_3589"
    INDEX 01 00:20:65
  TRACK 23 AUDIO
    TITLE "0:"
    INDEX 01 00:21:58
  TRACK 24 AUDIO
    TITLE "4:cjc114_3590"
    INDEX 01 00:21:74
  TRACK 25 AUDIO
    TITLE "0:"
    INDEX 01 00:24:31
  TRACK 26 AUDIO
    TITLE "2:cjc114_3591"
    INDEX 01 00:24:69
  TRACK 27 AUDIO
    TITLE "0:"
    INDEX 01 00:26:15
  TRACK 28 AUDIO
    TITLE "3:cjc114_3592"
    INDEX 01 00:26:30
  TRACK 29 AUDIO
    TITLE "0:"
    INDEX 01 00:27:34
  TRACK 30 AUDIO
    TITLE "4:cjc114_3593"
    INDEX 01 00:27:47
  TRACK 31 AUDIO
    TITLE "0:"
    INDEX 01 00:32:52
  TRACK 32 AUDIO
    TITLE "2:cjc114_3594"
    INDEX 01 00:33:15
  TRACK 33 AUDIO
    TITLE "0:"
    INDEX 01 00:34:28
  TRACK 34 AUDIO
    TITLE "3:cjc114_3595"
    INDEX 01 00:34:43
  TRACK 35 AUDIO
    TITLE "0:"
    INDEX 01 00:35:70
  TRACK 36 AUDIO
    TITLE "4:cjc114_3596"
    INDEX 01 00:36:09
  TRACK 37 AUDIO
    TITLE "0:"
    INDEX 01 00:40:38
  TRACK 38 AUDIO
    TITLE "2:cjc114_3597"
    INDEX 01 00:41:02
  TRACK 39 AUDIO
    TITLE "0:"
    INDEX 01 00:42:02
  TRACK 40 AUDIO
    TITLE "3:cjc114_3598"
    INDEX 01 00:42:18
  TRACK 41 AUDIO
    TITLE "0:"
    INDEX 01 00:43:52
  TRACK 42 AUDIO
    TITLE "4:cjc114_3599"
    INDEX 01 00:43:66
  TRACK 43 AUDIO
    TITLE "0:"
    INDEX 01 00:47:19
  TRACK 44 AUDIO
    TITLE "2:cjc114_3600"
    INDEX 01 00:47:56
  TRACK 45 AUDIO
    TITLE "0:"
    INDEX 01 00:48:69
  TRACK 46 AUDIO
    TITLE "3:cjc114_3601"
    INDEX 01 00:49:08
  TRACK 47 AUDIO
    TITLE "0:"
    INDEX 01 00:50:21
  TRACK 48 AUDIO
    TITLE "4:cjc114_3602"
    INDEX 01 00:50:35
  TRACK 49 AUDIO
    TITLE "0:"
    INDEX 01 00:53:62
  TRACK 50 AUDIO
    TITLE "2:cjc114_3603"
    INDEX 01 00:54:23
  TRACK 51 AUDIO
    TITLE "0:"
    INDEX 01 00:55:26
  TRACK 52 AUDIO
    TITLE "3:cjc114_3604"
    INDEX 01 00:55:42
  TRACK 53 AUDIO
    TITLE "0:"
    INDEX 01 00:56:61
  TRACK 54 AUDIO
    TITLE "4:cjc114_3605"
    INDEX 01 00:56:72
  TRACK 55 AUDIO
    TITLE "0:"
    INDEX 01 01:00:37
  TRACK 56 AUDIO
    TITLE "2:cjc114_3606"
    INDEX 01 01:01:07
  TRACK 57 AUDIO
    TITLE "0:"
    INDEX 01 01:02:05
  TRACK 58 AUDIO
    TITLE "3:cjc114_3607"
    INDEX 01 01:02:18
  TRACK 59 AUDIO
    TITLE "0:"
    INDEX 01 01:03:24
  TRACK 60 AUDIO
    TITLE "4:cjc114_3608"
    INDEX 01 01:03:35
  TRACK 61 AUDIO
    TITLE "0:"
    INDEX 01 01:06:55
